<svg width="64" height="40" viewBox="0 0 64 40" fill="none" xmlns="http://www.w3.org/2000/svg">
<rect x="0.7" y="0.7" width="62.6" height="38.6" rx="7.3" fill="#E9ECEF"/>
<path d="M17.3399 24.598C16.8545 24.598 16.6119 24.3507 16.6119 23.856V15.274C16.6119 14.7793 16.8545 14.532 17.3399 14.532C17.8252 14.532 18.0679 14.7793 18.0679 15.274V23.856C18.0679 24.3507 17.8252 24.598 17.3399 24.598ZM20.904 24.598C20.4373 24.598 20.204 24.36 20.204 23.884V18.284C20.204 17.808 20.4326 17.57 20.89 17.57C21.3473 17.57 21.576 17.808 21.576 18.284V18.802C21.8093 18.3913 22.1266 18.0787 22.528 17.864C22.9386 17.6493 23.396 17.542 23.9 17.542C25.5146 17.542 26.322 18.4567 26.322 20.286V23.884C26.322 24.36 26.0886 24.598 25.622 24.598C25.146 24.598 24.908 24.36 24.908 23.884V20.37C24.908 19.782 24.7913 19.3527 24.558 19.082C24.334 18.8113 23.9793 18.676 23.494 18.676C22.9246 18.676 22.4673 18.858 22.122 19.222C21.786 19.5767 21.618 20.048 21.618 20.636V23.884C21.618 24.36 21.38 24.598 20.904 24.598ZM28.9704 16.142C28.6904 16.142 28.471 16.072 28.3124 15.932C28.163 15.792 28.0884 15.596 28.0884 15.344C28.0884 14.812 28.3824 14.546 28.9704 14.546C29.5584 14.546 29.8524 14.812 29.8524 15.344C29.8524 15.876 29.5584 16.142 28.9704 16.142ZM28.9704 24.584C28.5037 24.584 28.2704 24.3273 28.2704 23.814V18.354C28.2704 17.85 28.5037 17.598 28.9704 17.598C29.4464 17.598 29.6844 17.85 29.6844 18.354V23.814C29.6844 24.3273 29.4464 24.584 28.9704 24.584ZM34.6847 24.626C33.9847 24.626 33.378 24.4813 32.8647 24.192C32.3607 23.8933 31.9687 23.478 31.6887 22.946C31.4087 22.4047 31.2687 21.77 31.2687 21.042C31.2687 19.9593 31.5767 19.1053 32.1927 18.48C32.8087 17.8547 33.6393 17.542 34.6847 17.542C35.0113 17.542 35.352 17.5933 35.7067 17.696C36.0707 17.7893 36.4067 17.948 36.7147 18.172C36.864 18.2653 36.948 18.3867 36.9667 18.536C36.9947 18.676 36.9713 18.8113 36.8967 18.942C36.8313 19.0633 36.7333 19.1473 36.6027 19.194C36.472 19.2313 36.3227 19.2033 36.1547 19.11C35.9307 18.9513 35.702 18.8393 35.4687 18.774C35.2353 18.6993 35.0113 18.662 34.7967 18.662C34.134 18.662 33.6207 18.872 33.2567 19.292C32.902 19.7027 32.7247 20.2907 32.7247 21.056C32.7247 21.8213 32.902 22.4233 33.2567 22.862C33.6207 23.2913 34.134 23.506 34.7967 23.506C35.0113 23.506 35.2307 23.4733 35.4547 23.408C35.688 23.3427 35.9213 23.2307 36.1547 23.072C36.3227 22.9787 36.4673 22.9553 36.5887 23.002C36.7193 23.0487 36.8127 23.1373 36.8687 23.268C36.934 23.3893 36.9527 23.5247 36.9247 23.674C36.906 23.814 36.822 23.9307 36.6727 24.024C36.374 24.2387 36.0473 24.3927 35.6927 24.486C35.3473 24.5793 35.0113 24.626 34.6847 24.626ZM38.9098 16.142C38.6298 16.142 38.4105 16.072 38.2518 15.932C38.1025 15.792 38.0278 15.596 38.0278 15.344C38.0278 14.812 38.3218 14.546 38.9098 14.546C39.4978 14.546 39.7918 14.812 39.7918 15.344C39.7918 15.876 39.4978 16.142 38.9098 16.142ZM38.9098 24.584C38.4432 24.584 38.2098 24.3273 38.2098 23.814V18.354C38.2098 17.85 38.4432 17.598 38.9098 17.598C39.3858 17.598 39.6238 17.85 39.6238 18.354V23.814C39.6238 24.3273 39.3858 24.584 38.9098 24.584ZM44.5821 24.626C43.8915 24.626 43.2941 24.4813 42.7901 24.192C42.2861 23.9027 41.8941 23.4967 41.6141 22.974C41.3435 22.442 41.2081 21.812 41.2081 21.084C41.2081 20.356 41.3435 19.7307 41.6141 19.208C41.8941 18.676 42.2861 18.2653 42.7901 17.976C43.2941 17.6867 43.8915 17.542 44.5821 17.542C45.2541 17.542 45.8421 17.6867 46.3461 17.976C46.8501 18.2653 47.2421 18.676 47.5221 19.208C47.8021 19.7307 47.9421 20.356 47.9421 21.084C47.9421 21.812 47.8021 22.442 47.5221 22.974C47.2421 23.4967 46.8501 23.9027 46.3461 24.192C45.8421 24.4813 45.2541 24.626 44.5821 24.626ZM44.5821 23.534C45.1608 23.534 45.6275 23.324 45.9821 22.904C46.3368 22.484 46.5141 21.8773 46.5141 21.084C46.5141 20.2907 46.3368 19.6887 45.9821 19.278C45.6275 18.858 45.1608 18.648 44.5821 18.648C43.9941 18.648 43.5228 18.858 43.1681 19.278C42.8135 19.6887 42.6361 20.2907 42.6361 21.084C42.6361 21.8773 42.8135 22.484 43.1681 22.904C43.5228 23.324 43.9941 23.534 44.5821 23.534Z" fill="#5B6166"/>
<rect x="0.7" y="0.7" width="62.6" height="38.6" rx="7.3" stroke="#E9ECEF" stroke-width="1.4"/>
</svg>
