<svg width="87" height="40" viewBox="0 0 87 40" fill="none" xmlns="http://www.w3.org/2000/svg">
<rect x="0.7" y="0.7" width="85.6" height="38.6" rx="7.3" fill="#E9ECEF"/>
<path d="M17.097 24.5C16.5744 24.5 16.313 24.2387 16.313 23.716V15.414C16.313 14.8913 16.5744 14.63 17.097 14.63H22.207C22.6084 14.63 22.809 14.8213 22.809 15.204C22.809 15.6053 22.6084 15.806 22.207 15.806H17.713V18.9H21.899C22.3004 18.9 22.501 19.096 22.501 19.488C22.501 19.88 22.3004 20.076 21.899 20.076H17.713V23.324H22.207C22.6084 23.324 22.809 23.52 22.809 23.912C22.809 24.304 22.6084 24.5 22.207 24.5H17.097ZM25.1032 24.598C24.6365 24.598 24.4032 24.36 24.4032 23.884V18.284C24.4032 17.808 24.6318 17.57 25.0892 17.57C25.5465 17.57 25.7752 17.808 25.7752 18.284V18.802C26.0085 18.3913 26.3258 18.0787 26.7272 17.864C27.1378 17.6493 27.5952 17.542 28.0992 17.542C29.7138 17.542 30.5212 18.4567 30.5212 20.286V23.884C30.5212 24.36 30.2878 24.598 29.8212 24.598C29.3452 24.598 29.1072 24.36 29.1072 23.884V20.37C29.1072 19.782 28.9905 19.3527 28.7572 19.082C28.5332 18.8113 28.1785 18.676 27.6932 18.676C27.1238 18.676 26.6665 18.858 26.3212 19.222C25.9852 19.5767 25.8172 20.048 25.8172 20.636V23.884C25.8172 24.36 25.5792 24.598 25.1032 24.598ZM35.3816 24.626C34.5229 24.626 33.8836 24.4067 33.4636 23.968C33.0436 23.5293 32.8336 22.8947 32.8336 22.064V18.76H31.9936C31.6016 18.76 31.4056 18.578 31.4056 18.214C31.4056 17.85 31.6016 17.668 31.9936 17.668H32.8336V16.226C32.8336 15.75 33.0716 15.512 33.5476 15.512C34.0143 15.512 34.2476 15.75 34.2476 16.226V17.668H35.8856C36.2776 17.668 36.4736 17.85 36.4736 18.214C36.4736 18.578 36.2776 18.76 35.8856 18.76H34.2476V21.952C34.2476 22.4467 34.3503 22.82 34.5556 23.072C34.7703 23.324 35.1156 23.45 35.5916 23.45C35.7596 23.45 35.9043 23.436 36.0256 23.408C36.1469 23.3707 36.2543 23.3473 36.3476 23.338C36.4503 23.338 36.5343 23.3753 36.5996 23.45C36.6649 23.5153 36.6976 23.646 36.6976 23.842C36.6976 23.9913 36.6696 24.1267 36.6136 24.248C36.5669 24.36 36.4783 24.4347 36.3476 24.472C36.2356 24.5187 36.0816 24.556 35.8856 24.584C35.6989 24.612 35.5309 24.626 35.3816 24.626ZM38.2969 24.598C37.8209 24.598 37.5829 24.36 37.5829 23.884V18.284C37.5829 17.808 37.8115 17.57 38.2689 17.57C38.7262 17.57 38.9549 17.808 38.9549 18.284V18.886C39.1415 18.466 39.4215 18.144 39.7949 17.92C40.1775 17.696 40.6395 17.5653 41.1809 17.528C41.5262 17.5 41.7129 17.6867 41.7409 18.088C41.7782 18.4987 41.5775 18.7227 41.1389 18.76L40.8729 18.788C39.6315 18.9093 39.0109 19.5487 39.0109 20.706V23.884C39.0109 24.36 38.7729 24.598 38.2969 24.598ZM44.9212 24.626C44.4452 24.626 44.0205 24.5327 43.6472 24.346C43.2738 24.1593 42.9752 23.9073 42.7512 23.59C42.5365 23.2727 42.4292 22.9133 42.4292 22.512C42.4292 22.008 42.5552 21.6113 42.8072 21.322C43.0685 21.0327 43.4932 20.8227 44.0812 20.692C44.6785 20.5613 45.4812 20.496 46.4892 20.496H46.9652V20.132C46.9652 19.6 46.8532 19.2173 46.6292 18.984C46.4052 18.7507 46.0365 18.634 45.5232 18.634C45.2245 18.634 44.9118 18.6713 44.5852 18.746C44.2678 18.8207 43.9365 18.9467 43.5912 19.124C43.3952 19.2173 43.2318 19.2313 43.1012 19.166C42.9798 19.1007 42.8958 18.998 42.8492 18.858C42.8025 18.718 42.8072 18.5733 42.8632 18.424C42.9192 18.2747 43.0358 18.1627 43.2132 18.088C43.6238 17.9013 44.0298 17.766 44.4312 17.682C44.8325 17.5887 45.2105 17.542 45.5652 17.542C46.4985 17.542 47.1892 17.766 47.6372 18.214C48.0852 18.6527 48.3092 19.3433 48.3092 20.286V23.884C48.3092 24.36 48.0898 24.598 47.6512 24.598C47.2032 24.598 46.9792 24.36 46.9792 23.884V23.366C46.8112 23.758 46.5498 24.066 46.1952 24.29C45.8405 24.514 45.4158 24.626 44.9212 24.626ZM45.2012 23.618C45.7052 23.618 46.1252 23.4407 46.4612 23.086C46.7972 22.7313 46.9652 22.2833 46.9652 21.742V21.364H46.5032C45.8218 21.364 45.2852 21.3967 44.8932 21.462C44.5105 21.5273 44.2352 21.6393 44.0672 21.798C43.9085 21.9473 43.8292 22.1573 43.8292 22.428C43.8292 22.7827 43.9505 23.072 44.1932 23.296C44.4358 23.5107 44.7718 23.618 45.2012 23.618ZM52.8607 24.626C52.2634 24.626 51.736 24.486 51.2787 24.206C50.8307 23.9167 50.4807 23.506 50.2287 22.974C49.9767 22.442 49.8507 21.812 49.8507 21.084C49.8507 20.356 49.9767 19.7307 50.2287 19.208C50.4807 18.676 50.8307 18.2653 51.2787 17.976C51.7267 17.6867 52.254 17.542 52.8607 17.542C53.374 17.542 53.8314 17.654 54.2327 17.878C54.634 18.102 54.9327 18.4053 55.1287 18.788V15.246C55.1287 14.77 55.362 14.532 55.8287 14.532C56.3047 14.532 56.5427 14.77 56.5427 15.246V23.884C56.5427 24.36 56.3094 24.598 55.8427 24.598C55.376 24.598 55.1427 24.36 55.1427 23.884V23.352C54.9374 23.744 54.634 24.0567 54.2327 24.29C53.8314 24.514 53.374 24.626 52.8607 24.626ZM53.2247 23.534C53.8034 23.534 54.27 23.324 54.6247 22.904C54.9794 22.484 55.1567 21.8773 55.1567 21.084C55.1567 20.2907 54.9794 19.6887 54.6247 19.278C54.27 18.858 53.8034 18.648 53.2247 18.648C52.6367 18.648 52.1654 18.858 51.8107 19.278C51.456 19.6887 51.2787 20.2907 51.2787 21.084C51.2787 21.8773 51.456 22.484 51.8107 22.904C52.1654 23.324 52.6367 23.534 53.2247 23.534ZM60.7122 24.626C60.2362 24.626 59.8115 24.5327 59.4382 24.346C59.0648 24.1593 58.7662 23.9073 58.5422 23.59C58.3275 23.2727 58.2202 22.9133 58.2202 22.512C58.2202 22.008 58.3462 21.6113 58.5982 21.322C58.8595 21.0327 59.2842 20.8227 59.8722 20.692C60.4695 20.5613 61.2722 20.496 62.2802 20.496H62.7562V20.132C62.7562 19.6 62.6442 19.2173 62.4202 18.984C62.1962 18.7507 61.8275 18.634 61.3142 18.634C61.0155 18.634 60.7028 18.6713 60.3762 18.746C60.0588 18.8207 59.7275 18.9467 59.3822 19.124C59.1862 19.2173 59.0228 19.2313 58.8922 19.166C58.7708 19.1007 58.6868 18.998 58.6402 18.858C58.5935 18.718 58.5982 18.5733 58.6542 18.424C58.7102 18.2747 58.8268 18.1627 59.0042 18.088C59.4148 17.9013 59.8208 17.766 60.2222 17.682C60.6235 17.5887 61.0015 17.542 61.3562 17.542C62.2895 17.542 62.9802 17.766 63.4282 18.214C63.8762 18.6527 64.1002 19.3433 64.1002 20.286V23.884C64.1002 24.36 63.8808 24.598 63.4422 24.598C62.9942 24.598 62.7702 24.36 62.7702 23.884V23.366C62.6022 23.758 62.3408 24.066 61.9862 24.29C61.6315 24.514 61.2068 24.626 60.7122 24.626ZM60.9922 23.618C61.4962 23.618 61.9162 23.4407 62.2522 23.086C62.5882 22.7313 62.7562 22.2833 62.7562 21.742V21.364H62.2942C61.6128 21.364 61.0762 21.3967 60.6842 21.462C60.3015 21.5273 60.0262 21.6393 59.8582 21.798C59.6995 21.9473 59.6202 22.1573 59.6202 22.428C59.6202 22.7827 59.7415 23.072 59.9842 23.296C60.2268 23.5107 60.5628 23.618 60.9922 23.618ZM68.4417 24.626C68.031 24.626 67.6064 24.5793 67.1677 24.486C66.729 24.3927 66.3324 24.234 65.9777 24.01C65.819 23.9167 65.721 23.8 65.6837 23.66C65.6464 23.52 65.6557 23.3893 65.7117 23.268C65.7677 23.1467 65.8564 23.0627 65.9777 23.016C66.1084 22.96 66.253 22.974 66.4117 23.058C66.7757 23.254 67.1257 23.394 67.4617 23.478C67.7977 23.562 68.129 23.604 68.4557 23.604C68.9504 23.604 69.3237 23.5153 69.5757 23.338C69.8277 23.1607 69.9537 22.9227 69.9537 22.624C69.9537 22.3813 69.8697 22.1947 69.7017 22.064C69.5337 21.924 69.2817 21.8167 68.9457 21.742L67.6157 21.476C66.4397 21.2333 65.8517 20.6267 65.8517 19.656C65.8517 19.012 66.1084 18.4987 66.6217 18.116C67.135 17.7333 67.807 17.542 68.6377 17.542C69.4777 17.542 70.201 17.7473 70.8077 18.158C70.957 18.2513 71.0457 18.368 71.0737 18.508C71.1017 18.6387 71.083 18.7647 71.0177 18.886C70.9524 18.998 70.8544 19.0773 70.7237 19.124C70.6024 19.1707 70.4577 19.152 70.2897 19.068C70.0097 18.9 69.7297 18.7787 69.4497 18.704C69.1697 18.62 68.899 18.578 68.6377 18.578C68.1524 18.578 67.7837 18.6713 67.5317 18.858C67.2797 19.0353 67.1537 19.278 67.1537 19.586C67.1537 20.0527 67.4617 20.3513 68.0777 20.482L69.4077 20.748C70.0144 20.8693 70.4717 21.0747 70.7797 21.364C71.097 21.6533 71.2557 22.0453 71.2557 22.54C71.2557 23.1933 70.999 23.7067 70.4857 24.08C69.9724 24.444 69.291 24.626 68.4417 24.626Z" fill="#5B6166"/>
<rect x="0.7" y="0.7" width="85.6" height="38.6" rx="7.3" stroke="#E9ECEF" stroke-width="1.4"/>
</svg>
