<svg width="92" height="40" viewBox="0 0 92 40" fill="none" xmlns="http://www.w3.org/2000/svg">
<rect x="0.7" y="0.7" width="90.6" height="38.6" rx="7.3" fill="#E9ECEF"/>
<path d="M17.0883 24.5C16.5656 24.5 16.3043 24.2387 16.3043 23.716V15.414C16.3043 14.8913 16.5656 14.63 17.0883 14.63H19.7903C21.4143 14.63 22.6649 15.0547 23.5423 15.904C24.4289 16.7533 24.8723 17.9713 24.8723 19.558C24.8723 21.1447 24.4289 22.3673 23.5423 23.226C22.6649 24.0753 21.4143 24.5 19.7903 24.5H17.0883ZM17.7603 23.282H19.7063C22.1423 23.282 23.3603 22.0407 23.3603 19.558C23.3603 17.0847 22.1423 15.848 19.7063 15.848H17.7603V23.282ZM29.8699 24.626C28.7499 24.626 27.8679 24.3133 27.2239 23.688C26.5799 23.0533 26.2579 22.19 26.2579 21.098C26.2579 20.398 26.3979 19.782 26.6779 19.25C26.9673 18.7087 27.3639 18.2887 27.8679 17.99C28.3719 17.6913 28.9506 17.542 29.6039 17.542C30.5466 17.542 31.2886 17.8453 31.8299 18.452C32.3713 19.0493 32.6419 19.8753 32.6419 20.93C32.6419 21.2473 32.4553 21.406 32.0819 21.406H27.6299C27.7326 22.8247 28.4839 23.534 29.8839 23.534C30.1639 23.534 30.4579 23.5013 30.7659 23.436C31.0739 23.3613 31.3726 23.2307 31.6619 23.044C31.8579 22.932 32.0259 22.8947 32.1659 22.932C32.3153 22.96 32.4226 23.0393 32.4879 23.17C32.5533 23.2913 32.5626 23.4313 32.5159 23.59C32.4786 23.7393 32.3713 23.87 32.1939 23.982C31.8766 24.1967 31.5033 24.36 31.0739 24.472C30.6539 24.5747 30.2526 24.626 29.8699 24.626ZM29.6599 18.536C29.0719 18.536 28.6053 18.718 28.2599 19.082C27.9146 19.446 27.7046 19.9313 27.6299 20.538H31.4519C31.4239 19.9033 31.2559 19.4133 30.9479 19.068C30.6399 18.7133 30.2106 18.536 29.6599 18.536ZM36.5775 24.626C36.1668 24.626 35.7421 24.5793 35.3035 24.486C34.8648 24.3927 34.4681 24.234 34.1135 24.01C33.9548 23.9167 33.8568 23.8 33.8195 23.66C33.7821 23.52 33.7915 23.3893 33.8475 23.268C33.9035 23.1467 33.9921 23.0627 34.1135 23.016C34.2441 22.96 34.3888 22.974 34.5475 23.058C34.9115 23.254 35.2615 23.394 35.5975 23.478C35.9335 23.562 36.2648 23.604 36.5915 23.604C37.0861 23.604 37.4595 23.5153 37.7115 23.338C37.9635 23.1607 38.0895 22.9227 38.0895 22.624C38.0895 22.3813 38.0055 22.1947 37.8375 22.064C37.6695 21.924 37.4175 21.8167 37.0815 21.742L35.7515 21.476C34.5755 21.2333 33.9875 20.6267 33.9875 19.656C33.9875 19.012 34.2441 18.4987 34.7575 18.116C35.2708 17.7333 35.9428 17.542 36.7735 17.542C37.6135 17.542 38.3368 17.7473 38.9435 18.158C39.0928 18.2513 39.1815 18.368 39.2095 18.508C39.2375 18.6387 39.2188 18.7647 39.1535 18.886C39.0881 18.998 38.9901 19.0773 38.8595 19.124C38.7381 19.1707 38.5935 19.152 38.4255 19.068C38.1455 18.9 37.8655 18.7787 37.5855 18.704C37.3055 18.62 37.0348 18.578 36.7735 18.578C36.2881 18.578 35.9195 18.6713 35.6675 18.858C35.4155 19.0353 35.2895 19.278 35.2895 19.586C35.2895 20.0527 35.5975 20.3513 36.2135 20.482L37.5435 20.748C38.1501 20.8693 38.6075 21.0747 38.9155 21.364C39.2328 21.6533 39.3915 22.0453 39.3915 22.54C39.3915 23.1933 39.1348 23.7067 38.6215 24.08C38.1081 24.444 37.4268 24.626 36.5775 24.626ZM41.6647 27.118C41.198 27.118 40.9647 26.88 40.9647 26.404V18.284C40.9647 17.808 41.1934 17.57 41.6507 17.57C42.1174 17.57 42.3507 17.808 42.3507 18.284V18.816C42.556 18.424 42.8594 18.116 43.2607 17.892C43.662 17.6587 44.1194 17.542 44.6327 17.542C45.2394 17.542 45.7667 17.6867 46.2147 17.976C46.672 18.2653 47.022 18.676 47.2647 19.208C47.5167 19.7307 47.6427 20.356 47.6427 21.084C47.6427 21.812 47.5167 22.442 47.2647 22.974C47.022 23.506 46.672 23.9167 46.2147 24.206C45.7667 24.486 45.2394 24.626 44.6327 24.626C44.1287 24.626 43.676 24.5187 43.2747 24.304C42.8827 24.08 42.584 23.7767 42.3787 23.394V26.404C42.3787 26.88 42.1407 27.118 41.6647 27.118ZM44.2827 23.534C44.8707 23.534 45.3374 23.324 45.6827 22.904C46.0374 22.484 46.2147 21.8773 46.2147 21.084C46.2147 20.2907 46.0374 19.6887 45.6827 19.278C45.3374 18.858 44.8707 18.648 44.2827 18.648C43.6947 18.648 43.2234 18.858 42.8687 19.278C42.5234 19.6887 42.3507 20.2907 42.3507 21.084C42.3507 21.8773 42.5234 22.484 42.8687 22.904C43.2234 23.324 43.6947 23.534 44.2827 23.534ZM52.4422 24.626C51.3222 24.626 50.4402 24.3133 49.7962 23.688C49.1522 23.0533 48.8302 22.19 48.8302 21.098C48.8302 20.398 48.9702 19.782 49.2502 19.25C49.5395 18.7087 49.9362 18.2887 50.4402 17.99C50.9442 17.6913 51.5229 17.542 52.1762 17.542C53.1189 17.542 53.8609 17.8453 54.4022 18.452C54.9435 19.0493 55.2142 19.8753 55.2142 20.93C55.2142 21.2473 55.0275 21.406 54.6542 21.406H50.2022C50.3049 22.8247 51.0562 23.534 52.4562 23.534C52.7362 23.534 53.0302 23.5013 53.3382 23.436C53.6462 23.3613 53.9449 23.2307 54.2342 23.044C54.4302 22.932 54.5982 22.8947 54.7382 22.932C54.8875 22.96 54.9949 23.0393 55.0602 23.17C55.1255 23.2913 55.1349 23.4313 55.0882 23.59C55.0509 23.7393 54.9435 23.87 54.7662 23.982C54.4489 24.1967 54.0755 24.36 53.6462 24.472C53.2262 24.5747 52.8249 24.626 52.4422 24.626ZM52.2322 18.536C51.6442 18.536 51.1775 18.718 50.8322 19.082C50.4869 19.446 50.2769 19.9313 50.2022 20.538H54.0242C53.9962 19.9033 53.8282 19.4133 53.5202 19.068C53.2122 18.7133 52.7829 18.536 52.2322 18.536ZM59.1497 24.626C58.7391 24.626 58.3144 24.5793 57.8757 24.486C57.4371 24.3927 57.0404 24.234 56.6857 24.01C56.5271 23.9167 56.4291 23.8 56.3917 23.66C56.3544 23.52 56.3637 23.3893 56.4197 23.268C56.4757 23.1467 56.5644 23.0627 56.6857 23.016C56.8164 22.96 56.9611 22.974 57.1197 23.058C57.4837 23.254 57.8337 23.394 58.1697 23.478C58.5057 23.562 58.8371 23.604 59.1637 23.604C59.6584 23.604 60.0317 23.5153 60.2837 23.338C60.5357 23.1607 60.6617 22.9227 60.6617 22.624C60.6617 22.3813 60.5777 22.1947 60.4097 22.064C60.2417 21.924 59.9897 21.8167 59.6537 21.742L58.3237 21.476C57.1477 21.2333 56.5597 20.6267 56.5597 19.656C56.5597 19.012 56.8164 18.4987 57.3297 18.116C57.8431 17.7333 58.5151 17.542 59.3457 17.542C60.1857 17.542 60.9091 17.7473 61.5157 18.158C61.6651 18.2513 61.7537 18.368 61.7817 18.508C61.8097 18.6387 61.7911 18.7647 61.7257 18.886C61.6604 18.998 61.5624 19.0773 61.4317 19.124C61.3104 19.1707 61.1657 19.152 60.9977 19.068C60.7177 18.9 60.4377 18.7787 60.1577 18.704C59.8777 18.62 59.6071 18.578 59.3457 18.578C58.8604 18.578 58.4917 18.6713 58.2397 18.858C57.9877 19.0353 57.8617 19.278 57.8617 19.586C57.8617 20.0527 58.1697 20.3513 58.7857 20.482L60.1157 20.748C60.7224 20.8693 61.1797 21.0747 61.4877 21.364C61.8051 21.6533 61.9637 22.0453 61.9637 22.54C61.9637 23.1933 61.7071 23.7067 61.1937 24.08C60.6804 24.444 59.9991 24.626 59.1497 24.626ZM65.721 24.626C65.245 24.626 64.8203 24.5327 64.447 24.346C64.0736 24.1593 63.775 23.9073 63.551 23.59C63.3363 23.2727 63.229 22.9133 63.229 22.512C63.229 22.008 63.355 21.6113 63.607 21.322C63.8683 21.0327 64.293 20.8227 64.881 20.692C65.4783 20.5613 66.281 20.496 67.289 20.496H67.765V20.132C67.765 19.6 67.653 19.2173 67.429 18.984C67.205 18.7507 66.8363 18.634 66.323 18.634C66.0243 18.634 65.7116 18.6713 65.385 18.746C65.0676 18.8207 64.7363 18.9467 64.391 19.124C64.195 19.2173 64.0316 19.2313 63.901 19.166C63.7796 19.1007 63.6956 18.998 63.649 18.858C63.6023 18.718 63.607 18.5733 63.663 18.424C63.719 18.2747 63.8356 18.1627 64.013 18.088C64.4236 17.9013 64.8296 17.766 65.231 17.682C65.6323 17.5887 66.0103 17.542 66.365 17.542C67.2983 17.542 67.989 17.766 68.437 18.214C68.885 18.6527 69.109 19.3433 69.109 20.286V23.884C69.109 24.36 68.8896 24.598 68.451 24.598C68.003 24.598 67.779 24.36 67.779 23.884V23.366C67.611 23.758 67.3496 24.066 66.995 24.29C66.6403 24.514 66.2156 24.626 65.721 24.626ZM66.001 23.618C66.505 23.618 66.925 23.4407 67.261 23.086C67.597 22.7313 67.765 22.2833 67.765 21.742V21.364H67.303C66.6216 21.364 66.085 21.3967 65.693 21.462C65.3103 21.5273 65.035 21.6393 64.867 21.798C64.7083 21.9473 64.629 22.1573 64.629 22.428C64.629 22.7827 64.7503 23.072 64.993 23.296C65.2356 23.5107 65.5716 23.618 66.001 23.618ZM73.4505 24.626C73.0398 24.626 72.6152 24.5793 72.1765 24.486C71.7378 24.3927 71.3412 24.234 70.9865 24.01C70.8278 23.9167 70.7298 23.8 70.6925 23.66C70.6552 23.52 70.6645 23.3893 70.7205 23.268C70.7765 23.1467 70.8652 23.0627 70.9865 23.016C71.1172 22.96 71.2618 22.974 71.4205 23.058C71.7845 23.254 72.1345 23.394 72.4705 23.478C72.8065 23.562 73.1378 23.604 73.4645 23.604C73.9592 23.604 74.3325 23.5153 74.5845 23.338C74.8365 23.1607 74.9625 22.9227 74.9625 22.624C74.9625 22.3813 74.8785 22.1947 74.7105 22.064C74.5425 21.924 74.2905 21.8167 73.9545 21.742L72.6245 21.476C71.4485 21.2333 70.8605 20.6267 70.8605 19.656C70.8605 19.012 71.1172 18.4987 71.6305 18.116C72.1438 17.7333 72.8158 17.542 73.6465 17.542C74.4865 17.542 75.2098 17.7473 75.8165 18.158C75.9658 18.2513 76.0545 18.368 76.0825 18.508C76.1105 18.6387 76.0918 18.7647 76.0265 18.886C75.9612 18.998 75.8632 19.0773 75.7325 19.124C75.6112 19.1707 75.4665 19.152 75.2985 19.068C75.0185 18.9 74.7385 18.7787 74.4585 18.704C74.1785 18.62 73.9078 18.578 73.6465 18.578C73.1612 18.578 72.7925 18.6713 72.5405 18.858C72.2885 19.0353 72.1625 19.278 72.1625 19.586C72.1625 20.0527 72.4705 20.3513 73.0865 20.482L74.4165 20.748C75.0232 20.8693 75.4805 21.0747 75.7885 21.364C76.1058 21.6533 76.2645 22.0453 76.2645 22.54C76.2645 23.1933 76.0078 23.7067 75.4945 24.08C74.9812 24.444 74.2998 24.626 73.4505 24.626Z" fill="#5B6166"/>
<rect x="0.7" y="0.7" width="90.6" height="38.6" rx="7.3" stroke="#E9ECEF" stroke-width="1.4"/>
</svg>
