<svg width="69" height="40" viewBox="0 0 69 40" fill="none" xmlns="http://www.w3.org/2000/svg">
<rect x="0.7" y="0.7" width="67.6" height="38.6" rx="7.3" fill="#FD377E"/>
<path d="M19.6147 24.57C19.4001 24.57 19.2227 24.5047 19.0827 24.374C18.9521 24.234 18.8867 24.0567 18.8867 23.842V15.834H16.0867C15.6387 15.834 15.4147 15.6333 15.4147 15.232C15.4147 15.036 15.4707 14.8867 15.5827 14.784C15.7041 14.6813 15.8721 14.63 16.0867 14.63H23.1427C23.3574 14.63 23.5207 14.6813 23.6327 14.784C23.7541 14.8867 23.8147 15.036 23.8147 15.232C23.8147 15.6333 23.5907 15.834 23.1427 15.834H20.3427V23.842C20.3427 24.0567 20.2774 24.234 20.1467 24.374C20.0161 24.5047 19.8387 24.57 19.6147 24.57ZM26.7312 24.598C26.0592 24.598 25.4665 24.4533 24.9532 24.164C24.4492 23.8747 24.0572 23.464 23.7772 22.932C23.5065 22.3907 23.3712 21.7653 23.3712 21.056C23.3712 20.3373 23.5065 19.712 23.7772 19.18C24.0572 18.6387 24.4492 18.2233 24.9532 17.934C25.4665 17.6447 26.0592 17.5 26.7312 17.5C27.4032 17.5 27.9912 17.6447 28.4952 17.934C29.0085 18.2233 29.4005 18.6387 29.6712 19.18C29.9512 19.712 30.0912 20.3373 30.0912 21.056C30.0912 21.7653 29.9512 22.3907 29.6712 22.932C29.4005 23.464 29.0085 23.8747 28.4952 24.164C27.9912 24.4533 27.4032 24.598 26.7312 24.598ZM26.7312 23.478C27.3565 23.478 27.8325 23.2727 28.1592 22.862C28.4952 22.4513 28.6632 21.8493 28.6632 21.056C28.6632 20.272 28.4952 19.6747 28.1592 19.264C27.8232 18.844 27.3472 18.634 26.7312 18.634C26.1152 18.634 25.6392 18.844 25.3032 19.264C24.9672 19.6747 24.7992 20.272 24.7992 21.056C24.7992 21.8493 24.9625 22.4513 25.2892 22.862C25.6252 23.2727 26.1059 23.478 26.7312 23.478ZM37.2515 14.56C37.4662 14.56 37.6389 14.6207 37.7695 14.742C37.9002 14.8633 37.9655 15.0267 37.9655 15.232V23.884C37.9655 24.0987 37.9002 24.2667 37.7695 24.388C37.6482 24.5093 37.4802 24.57 37.2655 24.57C37.0509 24.57 36.8782 24.5093 36.7475 24.388C36.6262 24.2667 36.5655 24.0987 36.5655 23.884V23.324C36.3602 23.7347 36.0615 24.052 35.6695 24.276C35.2775 24.4907 34.8249 24.598 34.3115 24.598C33.7235 24.598 33.1962 24.4487 32.7295 24.15C32.2722 23.8513 31.9129 23.4313 31.6515 22.89C31.3995 22.3487 31.2735 21.728 31.2735 21.028C31.2735 20.3187 31.3995 19.698 31.6515 19.166C31.9129 18.634 32.2722 18.2233 32.7295 17.934C33.1869 17.6447 33.7142 17.5 34.3115 17.5C34.8249 17.5 35.2729 17.612 35.6555 17.836C36.0475 18.0507 36.3462 18.3587 36.5515 18.76V15.204C36.5515 15.008 36.6122 14.854 36.7335 14.742C36.8642 14.6207 37.0369 14.56 37.2515 14.56ZM34.6475 23.478C35.2542 23.478 35.7255 23.268 36.0615 22.848C36.3975 22.428 36.5655 21.8307 36.5655 21.056C36.5655 20.2813 36.3975 19.684 36.0615 19.264C35.7349 18.844 35.2635 18.634 34.6475 18.634C34.0315 18.634 33.5509 18.844 33.2055 19.264C32.8695 19.6747 32.7015 20.2627 32.7015 21.028C32.7015 21.7933 32.8742 22.3953 33.2195 22.834C33.5649 23.2633 34.0409 23.478 34.6475 23.478ZM42.905 24.598C42.233 24.598 41.6404 24.4533 41.127 24.164C40.623 23.8747 40.231 23.464 39.951 22.932C39.6804 22.3907 39.545 21.7653 39.545 21.056C39.545 20.3373 39.6804 19.712 39.951 19.18C40.231 18.6387 40.623 18.2233 41.127 17.934C41.6404 17.6447 42.233 17.5 42.905 17.5C43.577 17.5 44.165 17.6447 44.669 17.934C45.1824 18.2233 45.5744 18.6387 45.845 19.18C46.125 19.712 46.265 20.3373 46.265 21.056C46.265 21.7653 46.125 22.3907 45.845 22.932C45.5744 23.464 45.1824 23.8747 44.669 24.164C44.165 24.4533 43.577 24.598 42.905 24.598ZM42.905 23.478C43.5304 23.478 44.0064 23.2727 44.333 22.862C44.669 22.4513 44.837 21.8493 44.837 21.056C44.837 20.272 44.669 19.6747 44.333 19.264C43.997 18.844 43.521 18.634 42.905 18.634C42.289 18.634 41.813 18.844 41.477 19.264C41.141 19.6747 40.973 20.272 40.973 21.056C40.973 21.8493 41.1364 22.4513 41.463 22.862C41.799 23.2727 42.2797 23.478 42.905 23.478ZM50.2194 24.598C49.2674 24.598 48.488 24.402 47.8814 24.01C47.7134 23.9073 47.592 23.8 47.5174 23.688C47.452 23.576 47.4194 23.45 47.4194 23.31C47.4194 23.1607 47.4614 23.0347 47.5454 22.932C47.6294 22.8293 47.7367 22.778 47.8674 22.778C47.9887 22.778 48.18 22.8527 48.4414 23.002C48.7214 23.1513 48.992 23.2727 49.2534 23.366C49.524 23.4593 49.86 23.506 50.2614 23.506C50.7094 23.506 51.0594 23.4267 51.3114 23.268C51.5634 23.1093 51.6894 22.8853 51.6894 22.596C51.6894 22.4093 51.638 22.26 51.5354 22.148C51.442 22.036 51.274 21.938 51.0314 21.854C50.7887 21.7607 50.4294 21.6627 49.9534 21.56C49.132 21.3827 48.5394 21.1447 48.1754 20.846C47.8207 20.538 47.6434 20.1227 47.6434 19.6C47.6434 19.1987 47.76 18.8393 47.9934 18.522C48.2267 18.1953 48.5487 17.9433 48.9594 17.766C49.37 17.5887 49.8367 17.5 50.3594 17.5C50.7327 17.5 51.0967 17.5513 51.4514 17.654C51.806 17.7473 52.1187 17.8873 52.3894 18.074C52.6974 18.2793 52.8514 18.5173 52.8514 18.788C52.8514 18.9373 52.8047 19.0633 52.7114 19.166C52.6274 19.2687 52.5247 19.32 52.4034 19.32C52.3194 19.32 52.2354 19.3013 52.1514 19.264C52.0674 19.2267 51.9554 19.166 51.8154 19.082C51.5634 18.9327 51.3254 18.816 51.1014 18.732C50.8867 18.648 50.616 18.606 50.2894 18.606C49.8974 18.606 49.58 18.69 49.3374 18.858C49.104 19.026 48.9874 19.2547 48.9874 19.544C48.9874 19.8053 49.0947 20.0107 49.3094 20.16C49.5334 20.3 49.9487 20.4353 50.5554 20.566C51.1807 20.6967 51.6707 20.846 52.0254 21.014C52.38 21.182 52.632 21.392 52.7814 21.644C52.94 21.8867 53.0194 22.1993 53.0194 22.582C53.0194 23.1887 52.7627 23.6787 52.2494 24.052C51.7454 24.416 51.0687 24.598 50.2194 24.598Z" fill="white"/>
<rect x="0.7" y="0.7" width="67.6" height="38.6" rx="7.3" stroke="#FD377E" stroke-width="1.4"/>
</svg>
