<svg width="136" height="13" viewBox="0 0 136 13" fill="none" xmlns="http://www.w3.org/2000/svg">
<path d="M9.24 10.704C9.368 10.896 9.432 11.0827 9.432 11.264C9.432 11.5093 9.33067 11.712 9.128 11.872C8.936 12.032 8.70667 12.112 8.44 12.112C8.26933 12.112 8.104 12.0747 7.944 12C7.79467 11.9147 7.66667 11.792 7.56 11.632L5.432 8.4C5.21867 8.05867 4.98933 7.81867 4.744 7.68C4.50933 7.54133 4.2 7.472 3.816 7.472H2.248V11.056C2.248 11.376 2.15733 11.632 1.976 11.824C1.79467 12.0053 1.54933 12.096 1.24 12.096C0.930667 12.096 0.68 12.0053 0.488 11.824C0.306667 11.632 0.216 11.376 0.216 11.056V1.696C0.216 1.38667 0.301333 1.14667 0.472 0.976C0.653333 0.805333 0.898667 0.719999 1.208 0.719999H5.208C6.488 0.719999 7.45867 1.008 8.12 1.584C8.792 2.14933 9.128 2.97067 9.128 4.048C9.128 4.92267 8.87733 5.64267 8.376 6.208C7.88533 6.76267 7.18667 7.12 6.28 7.28C6.58933 7.35467 6.86133 7.488 7.096 7.68C7.33067 7.872 7.56 8.13867 7.784 8.48L9.24 10.704ZM4.92 5.888C5.69867 5.888 6.26933 5.744 6.632 5.456C6.99467 5.15733 7.176 4.704 7.176 4.096C7.176 3.47733 6.99467 3.02933 6.632 2.752C6.26933 2.464 5.69867 2.32 4.92 2.32H2.232V5.888H4.92ZM17.357 9.856C17.5383 9.856 17.6823 9.92533 17.789 10.064C17.9063 10.2027 17.965 10.3893 17.965 10.624C17.965 10.9547 17.7677 11.232 17.373 11.456C17.0103 11.6587 16.5997 11.824 16.141 11.952C15.6823 12.0693 15.245 12.128 14.829 12.128C13.5703 12.128 12.573 11.7653 11.837 11.04C11.101 10.3147 10.733 9.32267 10.733 8.064C10.733 7.264 10.893 6.55467 11.213 5.936C11.533 5.31733 11.981 4.83733 12.557 4.496C13.1437 4.15467 13.805 3.984 14.541 3.984C15.245 3.984 15.8583 4.13867 16.381 4.448C16.9037 4.75733 17.309 5.19467 17.597 5.76C17.885 6.32533 18.029 6.992 18.029 7.76C18.029 8.21867 17.8263 8.448 17.421 8.448H12.701C12.765 9.184 12.973 9.728 13.325 10.08C13.677 10.4213 14.189 10.592 14.861 10.592C15.2023 10.592 15.501 10.5493 15.757 10.464C16.0237 10.3787 16.3223 10.2613 16.653 10.112C16.973 9.94133 17.2077 9.856 17.357 9.856ZM14.589 5.392C14.045 5.392 13.6077 5.56267 13.277 5.904C12.957 6.24533 12.765 6.736 12.701 7.376H16.317C16.2957 6.72533 16.1357 6.23467 15.837 5.904C15.5383 5.56267 15.1223 5.392 14.589 5.392ZM22.497 12.128C21.3343 12.128 20.3957 11.8987 19.681 11.44C19.3397 11.2373 19.169 10.9493 19.169 10.576C19.169 10.3627 19.2277 10.192 19.345 10.064C19.4623 9.92533 19.6063 9.856 19.777 9.856C19.9583 9.856 20.209 9.94133 20.529 10.112C20.8703 10.272 21.1797 10.3947 21.457 10.48C21.745 10.5653 22.1077 10.608 22.545 10.608C22.993 10.608 23.3397 10.5333 23.585 10.384C23.841 10.2347 23.969 10.0267 23.969 9.76C23.969 9.57867 23.9157 9.43467 23.809 9.328C23.713 9.22133 23.5317 9.12533 23.265 9.04C23.009 8.944 22.6143 8.83733 22.081 8.72C21.1317 8.528 20.449 8.256 20.033 7.904C19.6277 7.552 19.425 7.06667 19.425 6.448C19.425 5.97867 19.5637 5.55733 19.841 5.184C20.1183 4.8 20.497 4.50667 20.977 4.304C21.4677 4.09067 22.0223 3.984 22.641 3.984C23.089 3.984 23.521 4.04267 23.937 4.16C24.353 4.26667 24.7263 4.42667 25.057 4.64C25.3983 4.85333 25.569 5.136 25.569 5.488C25.569 5.70133 25.5103 5.88267 25.393 6.032C25.2757 6.17067 25.1317 6.24 24.961 6.24C24.8437 6.24 24.7263 6.21867 24.609 6.176C24.5023 6.12267 24.3637 6.048 24.193 5.952C23.8837 5.792 23.617 5.67467 23.393 5.6C23.169 5.51467 22.8917 5.472 22.561 5.472C22.1663 5.472 21.8517 5.552 21.617 5.712C21.393 5.872 21.281 6.09067 21.281 6.368C21.281 6.63467 21.3983 6.83733 21.633 6.976C21.8677 7.11467 22.321 7.25333 22.993 7.392C23.7077 7.54133 24.2677 7.712 24.673 7.904C25.0783 8.096 25.3663 8.336 25.537 8.624C25.7183 8.912 25.809 9.28 25.809 9.728C25.809 10.4533 25.505 11.0347 24.897 11.472C24.2997 11.9093 23.4997 12.128 22.497 12.128ZM33.6066 4.016C33.916 4.016 34.1613 4.10133 34.3426 4.272C34.524 4.44267 34.6146 4.672 34.6146 4.96V11.168C34.6146 11.4453 34.5186 11.6693 34.3266 11.84C34.1453 12.0107 33.9053 12.096 33.6066 12.096C33.3186 12.096 33.0893 12.016 32.9186 11.856C32.748 11.696 32.6626 11.4773 32.6626 11.2V10.8C32.4173 11.2267 32.0866 11.5573 31.6706 11.792C31.2546 12.016 30.7853 12.128 30.2626 12.128C28.3426 12.128 27.3826 11.0507 27.3826 8.896V4.96C27.3826 4.672 27.4733 4.44267 27.6546 4.272C27.836 4.10133 28.076 4.016 28.3746 4.016C28.684 4.016 28.9293 4.10133 29.1106 4.272C29.292 4.44267 29.3826 4.672 29.3826 4.96V8.912C29.3826 9.46667 29.4946 9.87733 29.7186 10.144C29.9426 10.4107 30.2946 10.544 30.7746 10.544C31.3293 10.544 31.772 10.3627 32.1026 10C32.444 9.62667 32.6146 9.136 32.6146 8.528V4.96C32.6146 4.672 32.7053 4.44267 32.8866 4.272C33.068 4.10133 33.308 4.016 33.6066 4.016ZM45.9923 3.984C46.8456 3.984 47.4963 4.24 47.9443 4.752C48.4029 5.25333 48.6323 6.06933 48.6323 7.2V11.136C48.6323 11.4453 48.5363 11.6853 48.3443 11.856C48.1629 12.016 47.9229 12.096 47.6243 12.096C47.3363 12.096 47.0963 12.016 46.9043 11.856C46.7229 11.6853 46.6323 11.4453 46.6323 11.136V7.2C46.6323 6.61333 46.5256 6.19733 46.3123 5.952C46.1096 5.696 45.7949 5.568 45.3683 5.568C44.8456 5.568 44.4296 5.74933 44.1203 6.112C43.8109 6.464 43.6562 6.94933 43.6562 7.568V11.136C43.6562 11.4453 43.5603 11.6853 43.3683 11.856C43.1869 12.016 42.9523 12.096 42.6643 12.096C42.3763 12.096 42.1363 12.016 41.9443 11.856C41.7523 11.6853 41.6563 11.4453 41.6563 11.136V7.2C41.6563 6.61333 41.5496 6.19733 41.3363 5.952C41.1336 5.696 40.8189 5.568 40.3923 5.568C39.8696 5.568 39.4536 5.74933 39.1443 6.112C38.8456 6.464 38.6963 6.94933 38.6963 7.568V11.136C38.6963 11.4453 38.6003 11.6853 38.4083 11.856C38.2163 12.016 37.9763 12.096 37.6883 12.096C37.4003 12.096 37.1603 12.016 36.9683 11.856C36.7869 11.6853 36.6963 11.4453 36.6963 11.136V4.944C36.6963 4.64533 36.7923 4.416 36.9843 4.256C37.1763 4.096 37.4163 4.016 37.7043 4.016C37.9816 4.016 38.2056 4.096 38.3763 4.256C38.5576 4.40533 38.6483 4.624 38.6483 4.912V5.296C38.8936 4.86933 39.2189 4.544 39.6243 4.32C40.0403 4.096 40.5149 3.984 41.0483 3.984C42.2216 3.984 43.0056 4.47467 43.4003 5.456C43.6349 5.008 43.9816 4.65067 44.4403 4.384C44.8989 4.11733 45.4163 3.984 45.9923 3.984ZM54.233 12.128C53.433 12.128 52.729 11.9627 52.121 11.632C51.5237 11.3013 51.0597 10.8267 50.729 10.208C50.3983 9.58933 50.233 8.86933 50.233 8.048C50.233 7.22667 50.3983 6.512 50.729 5.904C51.0597 5.28533 51.5237 4.81067 52.121 4.48C52.729 4.14933 53.433 3.984 54.233 3.984C55.033 3.984 55.7317 4.14933 56.329 4.48C56.937 4.81067 57.401 5.28533 57.721 5.904C58.0517 6.512 58.217 7.22667 58.217 8.048C58.217 8.86933 58.0517 9.58933 57.721 10.208C57.401 10.8267 56.937 11.3013 56.329 11.632C55.7317 11.9627 55.033 12.128 54.233 12.128ZM54.217 10.576C54.8677 10.576 55.3637 10.3627 55.705 9.936C56.0463 9.50933 56.217 8.88 56.217 8.048C56.217 7.22667 56.0463 6.60267 55.705 6.176C55.3637 5.73867 54.873 5.52 54.233 5.52C53.593 5.52 53.097 5.73867 52.745 6.176C52.4037 6.60267 52.233 7.22667 52.233 8.048C52.233 8.88 52.4037 9.50933 52.745 9.936C53.0863 10.3627 53.577 10.576 54.217 10.576ZM70.9319 2.592C70.5692 2.592 70.2812 2.496 70.0679 2.304C69.8545 2.10133 69.7479 1.84 69.7479 1.52C69.7479 1.2 69.8545 0.943999 70.0679 0.752C70.2812 0.56 70.5692 0.464 70.9319 0.464C71.2839 0.464 71.5665 0.56 71.7799 0.752C72.0039 0.943999 72.1159 1.2 72.1159 1.52C72.1159 1.84 72.0039 2.10133 71.7799 2.304C71.5665 2.496 71.2839 2.592 70.9319 2.592ZM71.0279 4.176C71.6252 4.176 71.9239 4.42667 71.9239 4.928V11.136C71.9239 11.4453 71.8279 11.6853 71.6359 11.856C71.4545 12.016 71.2199 12.096 70.9319 12.096C70.6439 12.096 70.4039 12.016 70.2119 11.856C70.0199 11.6853 69.9239 11.4453 69.9239 11.136V5.68H66.7559V11.136C66.7559 11.4453 66.6599 11.68 66.4679 11.84C66.2865 12 66.0519 12.08 65.7639 12.08C65.4759 12.08 65.2359 12 65.0439 11.84C64.8519 11.68 64.7559 11.4453 64.7559 11.136V5.68H63.9559C63.3585 5.68 63.0599 5.42933 63.0599 4.928C63.0599 4.42667 63.3585 4.176 63.9559 4.176H64.7559V4.096C64.7559 3.104 65.0172 2.32 65.5399 1.744C66.0732 1.15733 66.8199 0.821333 67.7799 0.735999L68.1479 0.704C68.2012 0.693333 68.2812 0.688 68.3879 0.688C68.9532 0.688 69.2359 0.927999 69.2359 1.408C69.2359 1.64267 69.1719 1.824 69.0439 1.952C68.9159 2.08 68.7399 2.15467 68.5159 2.176L68.1639 2.208C67.6732 2.25067 67.3159 2.40533 67.0919 2.672C66.8679 2.928 66.7559 3.30667 66.7559 3.808V4.176H71.0279ZM78.5528 3.984C79.4914 3.984 80.1901 4.25067 80.6488 4.784C81.1074 5.31733 81.3368 6.12267 81.3368 7.2V11.136C81.3368 11.4347 81.2461 11.6693 81.0648 11.84C80.8941 12.0107 80.6541 12.096 80.3448 12.096C80.0354 12.096 79.7901 12.0107 79.6088 11.84C79.4274 11.6693 79.3368 11.4347 79.3368 11.136V7.312C79.3368 6.704 79.2194 6.26133 78.9848 5.984C78.7608 5.70667 78.4034 5.568 77.9128 5.568C77.3368 5.568 76.8728 5.74933 76.5208 6.112C76.1794 6.47467 76.0088 6.96 76.0088 7.568V11.136C76.0088 11.4347 75.9181 11.6693 75.7368 11.84C75.5554 12.0107 75.3101 12.096 75.0008 12.096C74.6914 12.096 74.4461 12.0107 74.2648 11.84C74.0941 11.6693 74.0088 11.4347 74.0088 11.136V4.944C74.0088 4.66667 74.0994 4.44267 74.2808 4.272C74.4621 4.10133 74.7074 4.016 75.0168 4.016C75.2941 4.016 75.5181 4.10133 75.6888 4.272C75.8701 4.432 75.9608 4.64533 75.9608 4.912V5.344C76.2274 4.90667 76.5848 4.57067 77.0328 4.336C77.4808 4.10133 77.9874 3.984 78.5528 3.984ZM86.7601 3.984C87.8481 3.984 88.6535 4.256 89.1761 4.8C89.7095 5.33333 89.9761 6.14933 89.9761 7.248V11.152C89.9761 11.44 89.8908 11.6693 89.7201 11.84C89.5495 12 89.3148 12.08 89.0161 12.08C88.7388 12.08 88.5095 11.9947 88.3281 11.824C88.1575 11.6533 88.0721 11.4293 88.0721 11.152V10.8C87.8908 11.216 87.6028 11.5413 87.2081 11.776C86.8241 12.0107 86.3761 12.128 85.8641 12.128C85.3415 12.128 84.8668 12.0213 84.4401 11.808C84.0135 11.5947 83.6775 11.3013 83.4321 10.928C83.1868 10.5547 83.0641 10.1387 83.0641 9.68C83.0641 9.104 83.2081 8.65067 83.4961 8.32C83.7948 7.98933 84.2748 7.74933 84.9361 7.6C85.5975 7.45067 86.5095 7.376 87.6721 7.376H88.0721V7.008C88.0721 6.48533 87.9601 6.10667 87.7361 5.872C87.5121 5.62667 87.1495 5.504 86.6481 5.504C86.3388 5.504 86.0241 5.552 85.7041 5.648C85.3841 5.73333 85.0055 5.86133 84.5681 6.032C84.2908 6.17067 84.0881 6.24 83.9601 6.24C83.7681 6.24 83.6081 6.17067 83.4801 6.032C83.3628 5.89333 83.3041 5.712 83.3041 5.488C83.3041 5.30667 83.3468 5.152 83.4321 5.024C83.5281 4.88533 83.6828 4.75733 83.8961 4.64C84.2695 4.43733 84.7121 4.27733 85.2241 4.16C85.7468 4.04267 86.2588 3.984 86.7601 3.984ZM86.2641 10.688C86.7975 10.688 87.2295 10.512 87.5601 10.16C87.9015 9.79733 88.0721 9.33333 88.0721 8.768V8.432H87.7841C87.0695 8.432 86.5148 8.464 86.1201 8.528C85.7255 8.592 85.4428 8.704 85.2721 8.864C85.1015 9.024 85.0161 9.24267 85.0161 9.52C85.0161 9.86133 85.1335 10.144 85.3681 10.368C85.6135 10.5813 85.9121 10.688 86.2641 10.688ZM96.5528 3.984C97.4914 3.984 98.1901 4.25067 98.6488 4.784C99.1074 5.31733 99.3368 6.12267 99.3368 7.2V11.136C99.3368 11.4347 99.2461 11.6693 99.0648 11.84C98.8941 12.0107 98.6541 12.096 98.3448 12.096C98.0354 12.096 97.7901 12.0107 97.6088 11.84C97.4274 11.6693 97.3368 11.4347 97.3368 11.136V7.312C97.3368 6.704 97.2194 6.26133 96.9848 5.984C96.7608 5.70667 96.4034 5.568 95.9128 5.568C95.3368 5.568 94.8728 5.74933 94.5208 6.112C94.1794 6.47467 94.0088 6.96 94.0088 7.568V11.136C94.0088 11.4347 93.9181 11.6693 93.7368 11.84C93.5554 12.0107 93.3101 12.096 93.0008 12.096C92.6914 12.096 92.4461 12.0107 92.2648 11.84C92.0941 11.6693 92.0088 11.4347 92.0088 11.136V4.944C92.0088 4.66667 92.0994 4.44267 92.2808 4.272C92.4621 4.10133 92.7074 4.016 93.0168 4.016C93.2941 4.016 93.5181 4.10133 93.6888 4.272C93.8701 4.432 93.9608 4.64533 93.9608 4.912V5.344C94.2274 4.90667 94.5848 4.57067 95.0328 4.336C95.4808 4.10133 95.9874 3.984 96.5528 3.984ZM104.84 12.128C104.061 12.128 103.373 11.9627 102.776 11.632C102.189 11.3013 101.736 10.832 101.416 10.224C101.096 9.616 100.936 8.90667 100.936 8.096C100.936 7.28533 101.101 6.57067 101.432 5.952C101.773 5.32267 102.248 4.83733 102.856 4.496C103.464 4.15467 104.163 3.984 104.952 3.984C105.368 3.984 105.784 4.04267 106.2 4.16C106.627 4.27733 107 4.43733 107.32 4.64C107.661 4.864 107.832 5.14667 107.832 5.488C107.832 5.72267 107.773 5.91467 107.656 6.064C107.549 6.20267 107.405 6.272 107.224 6.272C107.107 6.272 106.984 6.24533 106.856 6.192C106.728 6.13867 106.6 6.07467 106.472 6C106.237 5.86133 106.013 5.75467 105.8 5.68C105.587 5.59467 105.341 5.552 105.064 5.552C104.403 5.552 103.891 5.77067 103.528 6.208C103.176 6.63467 103 7.25333 103 8.064C103 8.864 103.176 9.48267 103.528 9.92C103.891 10.3467 104.403 10.56 105.064 10.56C105.331 10.56 105.565 10.5227 105.768 10.448C105.981 10.3627 106.216 10.2507 106.472 10.112C106.632 10.016 106.771 9.94667 106.888 9.904C107.005 9.85067 107.123 9.824 107.24 9.824C107.411 9.824 107.555 9.89867 107.672 10.048C107.789 10.1973 107.848 10.384 107.848 10.608C107.848 10.7893 107.805 10.9493 107.72 11.088C107.645 11.216 107.517 11.3333 107.336 11.44C107.005 11.6533 106.621 11.824 106.184 11.952C105.747 12.0693 105.299 12.128 104.84 12.128ZM115.373 9.856C115.554 9.856 115.698 9.92533 115.805 10.064C115.922 10.2027 115.981 10.3893 115.981 10.624C115.981 10.9547 115.783 11.232 115.389 11.456C115.026 11.6587 114.615 11.824 114.157 11.952C113.698 12.0693 113.261 12.128 112.845 12.128C111.586 12.128 110.589 11.7653 109.853 11.04C109.117 10.3147 108.749 9.32267 108.749 8.064C108.749 7.264 108.909 6.55467 109.229 5.936C109.549 5.31733 109.997 4.83733 110.573 4.496C111.159 4.15467 111.821 3.984 112.557 3.984C113.261 3.984 113.874 4.13867 114.397 4.448C114.919 4.75733 115.325 5.19467 115.613 5.76C115.901 6.32533 116.045 6.992 116.045 7.76C116.045 8.21867 115.842 8.448 115.437 8.448H110.717C110.781 9.184 110.989 9.728 111.341 10.08C111.693 10.4213 112.205 10.592 112.877 10.592C113.218 10.592 113.517 10.5493 113.773 10.464C114.039 10.3787 114.338 10.2613 114.669 10.112C114.989 9.94133 115.223 9.856 115.373 9.856ZM112.605 5.392C112.061 5.392 111.623 5.56267 111.293 5.904C110.973 6.24533 110.781 6.736 110.717 7.376H114.333C114.311 6.72533 114.151 6.23467 113.853 5.904C113.554 5.56267 113.138 5.392 112.605 5.392ZM118.673 12.096C118.385 12.096 118.145 12.016 117.953 11.856C117.771 11.6853 117.681 11.4453 117.681 11.136V4.96C117.681 4.65067 117.771 4.416 117.953 4.256C118.145 4.096 118.385 4.016 118.673 4.016C118.961 4.016 119.201 4.096 119.393 4.256C119.585 4.416 119.681 4.65067 119.681 4.96V11.136C119.681 11.4453 119.585 11.6853 119.393 11.856C119.201 12.016 118.961 12.096 118.673 12.096ZM118.673 2.592C118.31 2.592 118.022 2.496 117.809 2.304C117.595 2.10133 117.489 1.84 117.489 1.52C117.489 1.2 117.595 0.943999 117.809 0.752C118.022 0.56 118.31 0.464 118.673 0.464C119.025 0.464 119.307 0.56 119.521 0.752C119.745 0.943999 119.857 1.2 119.857 1.52C119.857 1.84 119.75 2.10133 119.537 2.304C119.323 2.496 119.035 2.592 118.673 2.592ZM126.111 4.016C126.388 3.99467 126.607 4.05333 126.767 4.192C126.927 4.33067 127.007 4.53867 127.007 4.816C127.007 5.104 126.938 5.31733 126.799 5.456C126.66 5.59467 126.41 5.68533 126.047 5.728L125.567 5.776C124.938 5.84 124.474 6.05333 124.175 6.416C123.887 6.77867 123.743 7.232 123.743 7.776V11.136C123.743 11.4453 123.647 11.6853 123.455 11.856C123.263 12.016 123.023 12.096 122.735 12.096C122.447 12.096 122.207 12.016 122.015 11.856C121.834 11.6853 121.743 11.4453 121.743 11.136V4.944C121.743 4.64533 121.834 4.416 122.015 4.256C122.207 4.096 122.442 4.016 122.719 4.016C122.996 4.016 123.22 4.096 123.391 4.256C123.562 4.40533 123.647 4.624 123.647 4.912V5.552C123.85 5.08267 124.148 4.72 124.543 4.464C124.948 4.208 125.396 4.064 125.887 4.032L126.111 4.016ZM131.28 12.128C130.48 12.128 129.776 11.9627 129.168 11.632C128.571 11.3013 128.107 10.8267 127.776 10.208C127.445 9.58933 127.28 8.86933 127.28 8.048C127.28 7.22667 127.445 6.512 127.776 5.904C128.107 5.28533 128.571 4.81067 129.168 4.48C129.776 4.14933 130.48 3.984 131.28 3.984C132.08 3.984 132.779 4.14933 133.376 4.48C133.984 4.81067 134.448 5.28533 134.768 5.904C135.099 6.512 135.264 7.22667 135.264 8.048C135.264 8.86933 135.099 9.58933 134.768 10.208C134.448 10.8267 133.984 11.3013 133.376 11.632C132.779 11.9627 132.08 12.128 131.28 12.128ZM131.264 10.576C131.915 10.576 132.411 10.3627 132.752 9.936C133.093 9.50933 133.264 8.88 133.264 8.048C133.264 7.22667 133.093 6.60267 132.752 6.176C132.411 5.73867 131.92 5.52 131.28 5.52C130.64 5.52 130.144 5.73867 129.792 6.176C129.451 6.60267 129.28 7.22667 129.28 8.048C129.28 8.88 129.451 9.50933 129.792 9.936C130.133 10.3627 130.624 10.576 131.264 10.576Z" fill="#212529"/>
</svg>
